<?xml version="1.0" encoding="UTF-8"?>
<svg width="24px" height="24px" viewBox="0 0 24 24" version="1.1" xmlns="http://www.w3.org/2000/svg" xmlns:xlink="http://www.w3.org/1999/xlink">
    <title>logo</title>
    <defs>
        <path d="M0,0 L24,0 L24,24 L0,24 L0,0 Z" id="path-1"></path>
    </defs>
    <g id="logo" stroke="none" fill="none" xlink:href="#path-1" fill-rule="evenodd">
        <rect id="Rectangle" fill="#18181B" x="0" y="0" width="24" height="24" rx="4"></rect>
        <path d="M15.1367915,6.65842465 C15.2966339,6.11903018 14.7456332,5.80006549 14.242422,6.14065016 L7.21772885,10.8947955 C6.67199132,11.2641451 6.75783353,12.0000006 7.34667639,12.0000006 L9.19646821,12.0000006 L9.19646821,11.9863944 L12.8016307,11.9863944 L9.86410064,12.9710434 L8.56909899,17.3415892 C8.40925668,17.8809886 8.96020475,18.1999383 9.46346855,17.8593386 L16.4881617,13.1052433 C17.0338992,12.7358937 16.9480044,12.0000006 16.3592141,12.0000006 L13.5540527,12.0000006 L15.1367915,6.65842465 Z" id="-path" fill="#FFFFFF"></path>
    </g>
</svg>